<svg xmlns="http://www.w3.org/2000/svg" height="100" width="88"><path d="M76.38 67.219V54.53c0-.312-.15-.6-.39-.79a1.015 1.015 0 00-.87-.173l-3.36.953v-7.193a.98.98 0 00-.5-.859 1.01 1.01 0 00-1 .01l-17.51 10.35v-9.427h9.422c6.645 0 12.328-4.24 14.479-10.162a4.016 4.016 0 002.98 1.323 4.063 4.063 0 004.052-4.053V28.5a4.057 4.057 0 00-4.052-4.052c-1.11 0-2.11.454-2.839 1.172-2.032-6.13-7.813-10.557-14.62-10.557h-3.574V8.66A4.387 4.387 0 0062 4.391C62 1.969 60.03 0 57.61 0a4.395 4.395 0 00-4.391 4.39 4.393 4.393 0 003.4 4.271v6.407H27.652V8.661c1.947-.453 3.401-2.192 3.401-4.27A4.398 4.398 0 0026.662 0a4.388 4.388 0 00-.99 8.661v6.407H24.14c-6.837 0-12.65 4.484-14.65 10.672a4.003 4.003 0 00-2.938-1.281A4.06 4.06 0 002.5 28.51v6.011a4.053 4.053 0 004.052 4.047 4.06 4.06 0 003.079-1.428c2.118 5.98 7.817 10.272 14.52 10.272h10.1v9.578L16.01 46.459a.984.984 0 00-.99 0c-.313.181-.5.5-.5.858v6.995l-2.652-.744a1.015 1.015 0 00-.869.172.985.985 0 00-.39.79v12.678C4.687 67.63 0 72.568 0 78.598c0 6.033 4.688 10.97 10.61 11.392a1 1 0 00.729.958l31.89 8.65c.088.022.173.033.26.033h.011c.079 0 .172-.011.25-.033l31.89-8.65c.428-.12.73-.51.73-.958v-.011c5.87-.469 10.51-5.391 10.51-11.38.01-5.99-4.63-10.911-10.5-11.38z" fill="#232c3b"/><path d="M33.921 7.317l8.548-3.915v5.02c0 .318.162.63.422.807a.99.99 0 00.568.183c.11 0 .229-.021.344-.063l7.536-2.709a.993.993 0 00-.667-1.87l-6.224 2.24V1.85a.988.988 0 00-.458-.84 1.013 1.013 0 00-.938-.062L33.098 5.52a.992.992 0 00-.489 1.318c.23.5.812.713 1.312.478z" fill="#232c3b"/><path d="M62.172 17.052H24.14c-7.4 0-13.41 6.016-13.41 13.407V32c0 7.402 6.02 13.412 13.41 13.412h38.032c7.396 0 13.407-6.021 13.407-13.412v-1.541c0-7.39-6.016-13.407-13.407-13.407z" fill="#c8c8c8"/><path d="M71.49 31.172c0-6.312-5.13-11.443-11.438-11.443-6.312 0-11.443 5.13-11.443 11.443 0 6.307 5.131 11.437 11.443 11.437 6.308 0 11.438-5.13 11.438-11.437zM60.063 40.63c-5.214 0-9.454-4.24-9.454-9.448 0-5.214 4.24-9.454 9.454-9.454 5.208 0 9.447 4.24 9.447 9.454 0 5.197-4.24 9.448-9.447 9.448zM48.303 41.03H38.86a.989.989 0 100 1.98h9.452c.548 0 .99-.442.99-.989a1.009 1.009 0 00-1-.99zM26.63 19.74c-6.313 0-11.442 5.13-11.442 11.443 0 6.307 5.13 11.437 11.443 11.437 6.306 0 11.437-5.13 11.437-11.437 0-6.314-5.13-11.443-11.437-11.443zm0 20.89c-5.209 0-9.447-4.24-9.447-9.447 0-5.214 4.238-9.454 9.448-9.454 5.208 0 9.448 4.24 9.448 9.454.009 5.197-4.23 9.448-9.448 9.448z" fill="#232c3b"/><path d="M26.63 27.063a5.964 5.964 0 00-5.958 5.958c0 .547.437.99.99.99.546 0 .989-.443.989-.99a3.968 3.968 0 117.937 0c0 .547.443.99.99.99.553 0 .99-.443.99-.99.02-3.292-2.647-5.958-5.937-5.958zM60.063 27.063a5.96 5.96 0 00-5.954 5.958.989.989 0 101.979 0 3.972 3.972 0 017.943 0c0 .547.438.99.99.99.547 0 .99-.443.99-.99 0-3.292-2.672-5.958-5.948-5.958z" fill="#232c3b"/><path d="M26.63 21.719c-5.209 0-9.447 4.24-9.447 9.453 0 5.208 4.238 9.448 9.448 9.448 5.208 0 9.448-4.24 9.448-9.448.009-5.213-4.23-9.453-9.448-9.453zm4.968 12.291a.989.989 0 01-.989-.989 3.968 3.968 0 10-7.937 0c0 .547-.443.99-.99.99a.99.99 0 01-.994-.99 5.968 5.968 0 015.963-5.958 5.955 5.955 0 015.947 5.958c-.01.542-.458.99-1 .99zM60.063 21.719c-5.214 0-9.454 4.24-9.454 9.453 0 5.208 4.24 9.448 9.454 9.448 5.208 0 9.447-4.24 9.447-9.448 0-5.213-4.24-9.453-9.447-9.453zM65.02 34.01a.986.986 0 01-.99-.989 3.972 3.972 0 00-7.943 0 .989.989 0 11-1.979 0c0-3.28 2.672-5.958 5.954-5.958 3.276 0 5.958 2.666 5.958 5.958-.01.542-.453.99-1 .99z" fill="#f3f3f3"/><path d="M16.51 54.87l19.651 5.51-19.65-11.339zM69.77 49.063L50.5 60.469l5.64-1.578 1.98-.5v11.046L60 67.73a.995.995 0 011.23-.078l2.358 1.63V56.828l4.063-1.167 2.12-.593z" fill="#cce6d7"/><path d="M69.161 88.161c-1.822 0-3.442-1.478-3.849-3.52-.26-1.292.005-2.562.657-3.5-.969-.61-1.71-1.672-1.98-2.958-.468-2.323.782-4.543 2.803-4.954l6-1.229 1.62-.328V55.839l-8.814 2.473v12.87a.98.98 0 01-.53.88A1.011 1.011 0 0164.041 72l-3.281-2.26-2.957 2.681a1.04 1.04 0 01-.672.262.909.909 0 01-.402-.095.98.98 0 01-.589-.905V60.948l-7.119 1.99v33.171l25.38-6.88v-2.068l-4.584.937a3.495 3.495 0 01-.656.063zM46.052 63.781l-1.562.438v33.12l2.54-.688V63.5z" fill="#cce6d7"/><path d="M5.088 84.303c-.49-.923-.64-2.022-.416-3.115.26-1.286 1.01-2.35 1.979-2.959a2.926 2.926 0 01-.239-.39c-.49-.918-.641-2.027-.422-3.11a4.644 4.644 0 011.573-2.66c.166-.137.339-.257.505-.361.01 0 .01-.01.02-.01.172-.1.35-.188.532-.26.052-.017.11-.026.161-.047.14-.052.282-.099.427-.12.213-.042.423-.063.63-.063.225 0 .443.021.662.073l.098.022v-2.106c-4.827.412-8.629 4.475-8.629 9.401 0 .553.062 1.09.162 1.62.03.162.066.323.098.48.03.151.088.292.13.433C3.403 84.849 6.64 87.66 10.6 88v-1.219l-3.14-.64c-1-.21-1.85-.87-2.371-1.838zM50.76 58.01V47.402H36.219V58.13l7.27 4.186z" fill="#c8c8c8"/><path d="M39.948 96.65l2.552.689v-33.12l-2.552-.719z" fill="#cce6d7"/><path d="M76.38 69.197v2.074c.218-.042.437-.074.661-.074.24 0 .47.032.688.084l.088.031c.204.048.39.11.585.188.01 0 .02.01.03.021.417.187.808.458 1.156.796a4.76 4.76 0 011.303 2.412c.218 1.088.078 2.192-.422 3.11-.067.14-.152.26-.24.39.968.61 1.708 1.673 1.979 2.959.224 1.093.073 2.192-.416 3.115-.521.978-1.37 1.629-2.38 1.837l-3.043.62V88c3.59-.35 6.59-2.719 7.86-5.959a.355.355 0 00.03-.072c.178-.469.32-.959.429-1.459.01-.04.03-.073.03-.108.11-.585.173-1.183.173-1.793.021-4.912-3.73-8.948-8.51-9.412z" fill="#c8c8c8"/><path d="M12.588 71.697l7.521 1.543c2.022.41 3.271 2.63 2.803 4.948-.261 1.29-1.01 2.353-1.98 2.963.647.937.917 2.198.656 3.5-.416 2.037-2.036 3.52-3.848 3.52-.219 0-.437-.02-.661-.073l-4.48-.915v2.046l25.36 6.88V62.937l-25.371-7.109z" fill="#cce6d7"/><path d="M77.052 73.188a.987.987 0 00-.26.03l-9.61 1.965a1.359 1.359 0 00-.614.307c-.078.073-.136.182-.208.27-.079.1-.163.177-.22.303-.072.145-.11.317-.15.49-.02.087-.058.166-.069.259-.03.178-.009.37 0 .557.01.09 0 .172.01.262.006.052 0 .088.006.14.235 1.098 1.053 1.926 1.912 1.926.088 0 .182-.009.26-.025l9.61-1.975c.421-.088.791-.38 1.03-.828.272-.51.35-1.14.22-1.781-.24-1.067-1.057-1.9-1.917-1.9zM78.098 79.672L68.49 81.63c-.927.186-1.5 1.38-1.25 2.61.01.051.03.076.052.128.26 1.033 1.036 1.803 1.859 1.803.09 0 .177-.01.261-.032l7.578-1.552 2.031-.405c.416-.095.791-.38 1.031-.834.265-.51.35-1.141.219-1.78a2.611 2.611 0 00-.25-.689c-.031-.068-.084-.13-.12-.197a2.933 2.933 0 00-.27-.371c-.063-.061-.11-.13-.172-.181-.11-.1-.219-.172-.328-.24a1.684 1.684 0 00-.183-.11 1.45 1.45 0 00-.588-.14l-.262.03zM18.39 81.64l-9.609-1.957a1.192 1.192 0 00-.26-.032c-.86 0-1.682.828-1.912 1.928-.13.64-.046 1.27.22 1.78.25.453.609.74 1.03.829l1.89.39 7.72 1.583c.922.188 1.88-.671 2.15-1.849 0-.02.021-.041.021-.061.25-1.23-.323-2.423-1.25-2.61zM20.959 77.792c.01-.052 0-.095.01-.141.01-.088.01-.172.01-.26.01-.194.031-.38 0-.563-.01-.099-.047-.188-.077-.276-.042-.161-.085-.333-.153-.473-.061-.12-.15-.21-.228-.32-.073-.087-.12-.19-.204-.259-.177-.15-.38-.26-.61-.312l-9.609-1.959a1.116 1.116 0 00-.26-.032c-.86 0-1.677.834-1.906 1.934-.13.64-.052 1.27.219 1.781.24.448.609.739 1.032.828l1.577.312 8.032 1.636c.937.203 1.916-.688 2.167-1.896zM77.568 32v-3.5a2.06 2.06 0 012.063-2.063c.077 0 .14.042.218.042.01-.01.01-.02.02-.02.079.01.152.051.23.072.152.037.292.067.432.13.1.047.177.12.272.178.109.082.228.15.328.249.098.1.172.23.238.36.063.093.131.172.172.27.1.24.156.5.156.772v6.01c0 .281-.057.552-.156.792-.051.12-.14.208-.213.306-.068.11-.13.24-.23.334-.12.12-.27.199-.41.276-.079.052-.147.12-.23.161-.155.068-.327.079-.51.11-.088.01-.167.062-.265.062-.022 0-.032.011-.043.011a2.06 2.06 0 01-2.061-2.062V32zM8.598 34.51c0 .282-.057.542-.16.782-.036.099-.12.187-.178.276-.072.12-.13.244-.23.353-.098.11-.227.177-.347.262-.095.057-.162.129-.262.177-.14.072-.29.088-.452.13-.078.02-.152.062-.24.073 0-.01-.01-.01-.01-.022-.058.011-.12.038-.188.038a2.056 2.056 0 01-2.062-2.058v-6.01c0-1.142.933-2.063 2.062-2.063.13 0 .229.052.35.073l.031-.031c.078.02.15.062.219.078.11.03.208.072.307.12.13.072.245.15.365.244.077.068.156.12.238.199.11.12.188.26.271.4.037.078.1.14.126.218.093.24.15.491.15.761v6z" fill="#fdb8d1"/><path d="M60.281 4.36a2.68 2.68 0 11-5.36 0 2.68 2.68 0 015.36 0M29.312 4.36a2.684 2.684 0 01-2.681 2.681 2.684 2.684 0 01-2.683-2.681 2.68 2.68 0 012.683-2.677 2.68 2.68 0 012.681 2.677" fill="#79d0e1"/></svg>